<?xml version="1.0" encoding="UTF-8"?><svg id="Layer_2" xmlns="http://www.w3.org/2000/svg" xmlns:xlink="http://www.w3.org/1999/xlink" viewBox="0 0 808.26 138.85"><defs><style>.cls-1{fill:url(#linear-gradient);}.cls-1,.cls-2,.cls-3,.cls-4{stroke-width:0px;}.cls-2{fill:#2c73b5;}.cls-3{fill:#002354;}.cls-4{fill:#0098db;}</style><linearGradient id="linear-gradient" x1="50.96" y1="281.42" x2="68.1" y2="328.52" gradientTransform="translate(0 -215.95)" gradientUnits="userSpaceOnUse"><stop offset="0" stop-color="#002354"/><stop offset=".26" stop-color="#0f3f76"/><stop offset=".57" stop-color="#1e5b98"/><stop offset=".83" stop-color="#286cad"/><stop offset="1" stop-color="#2c73b5"/></linearGradient></defs><g id="Camada_1"><path class="cls-1" d="m37.58,80.21l21.17-10.79,31.16,15.9c2.17,1.11,3.53,3.34,3.53,5.77v45.16c0,1.94-2.05,3.19-3.77,2.31l-52.94-27.01-5.46-8.9c-4.84-7.89-1.93-18.23,6.31-22.43Z"/><path class="cls-4" d="m3.14,44.48c.13-.08.26-.17.4-.24L89.67.29c1.72-.88,3.77.37,3.77,2.31v45.16c0,2.44-1.37,4.67-3.53,5.77l-31.16,15.89L9.43,44.25c-2.14-1.09-4.48-.87-6.29.22Z"/><path class="cls-2" d="m.06,49.12c0-.06.03-.12.04-.19.04-.23.08-.46.14-.68.01-.05.03-.09.05-.14.07-.23.15-.46.24-.68.03-.07.07-.14.11-.21.09-.18.17-.36.28-.53.07-.12.15-.23.23-.34.08-.11.15-.22.23-.33.11-.15.24-.28.36-.42.05-.06.11-.12.16-.17.15-.15.32-.3.48-.44.03-.03.07-.06.1-.08.19-.15.38-.28.58-.41.02-.01.05-.03.07-.04,1.81-1.09,4.15-1.32,6.29-.22l49.32,25.17-21.17,10.79c-8.25,4.2-11.16,14.54-6.31,22.43l5.46,8.9-13.41-6.84-19.79-10.12C1.36,93.48,0,91.25,0,88.82v-38.79c0-.09.01-.18.02-.28,0-.21.02-.42.04-.63Z"/><path class="cls-4" d="m476.19,95.04h-23.12l-6.07,13.32c-.56,1.23-1.79,2.02-3.14,2.02h-18.34c-2.6,0-4.27-2.76-3.06-5.06l38.55-73.39c.6-1.14,1.77-1.85,3.06-1.85h25.13c1.73,0,3.19,1.27,3.42,2.98l10.1,73.39c.29,2.08-1.33,3.92-3.42,3.92h-18.77c-1.81,0-3.31-1.4-3.44-3.2l-.89-12.14Zm-14.21-19.51h12.74l-1.8-23.69-10.94,23.69Z"/><path class="cls-4" d="m538.78,89.07h28.48c2.42,0,4.09,2.42,3.23,4.68l-5.49,14.41c-.51,1.34-1.79,2.22-3.23,2.22h-49.14c-2.17,0-3.81-1.98-3.39-4.12l14.32-73.39c.32-1.62,1.74-2.79,3.39-2.79h19.13c2.17,0,3.81,1.98,3.39,4.11l-10.7,54.87Z"/><path class="cls-4" d="m655.14,30.08c2.17,0,3.81,1.98,3.39,4.12l-8.78,44.83c-1.13,5.86-2.69,10.9-4.68,15.11-1.99,4.21-4.56,7.67-7.72,10.38-3.16,2.7-6.94,4.69-11.33,5.97-4.4,1.28-9.61,1.91-15.62,1.91s-11.47-.62-15.68-1.86c-4.21-1.24-7.63-2.99-10.26-5.25-2.63-2.26-4.51-4.93-5.64-8.01-1.13-3.08-1.69-6.47-1.69-10.15,0-3.08.34-6.32,1.01-9.7l8.7-44.58c.32-1.62,1.74-2.79,3.39-2.79h19.12c2.17,0,3.81,1.98,3.39,4.12l-8.78,44.83c-.3,1.43-.45,2.89-.45,4.4,0,2.18.58,3.95,1.75,5.3,1.16,1.35,3.4,2.03,6.71,2.03,3.76,0,6.43-.88,8.01-2.65,1.58-1.77,2.78-4.79,3.61-9.08l9.04-46.16c.32-1.62,1.74-2.79,3.39-2.79h19.13Z"/><path class="cls-4" d="m685.61,70.01c-.68,3.38-1.01,6.28-1.01,8.68,0,3.68.82,6.39,2.48,8.12,1.65,1.72,4.36,2.59,8.11,2.59h6.43l1.91-8.68h-4.56c-2.42,0-4.09-2.43-3.22-4.69l4.45-11.59c.51-1.33,1.79-2.21,3.22-2.21h23.55c2.17,0,3.8,1.98,3.39,4.11l-5.97,30.74c-.83,4.29-2.25,7.35-4.29,9.19-2.03,1.84-4.93,3.06-8.68,3.66-1.06.15-2.44.28-4.17.39-1.73.12-3.55.19-5.47.23-1.91.04-3.76.05-5.52.05h-4.23c-6.02,0-11.15-.69-15.39-2.09-4.25-1.39-7.73-3.36-10.43-5.92-2.71-2.55-4.68-5.65-5.92-9.3-1.24-3.65-1.86-7.69-1.86-12.13,0-1.95.11-3.92.34-5.92.23-1.99.53-4.08.9-6.26,1.58-8.19,3.8-14.84,6.66-19.96,2.86-5.12,6.37-9.08,10.55-11.9,4.17-2.82,9-4.74,14.49-5.76,5.48-1.01,11.61-1.52,18.38-1.52,2.18,0,4.23.02,6.15.06,1.91.04,3.84.09,5.75.17,1.02.04,4.46.14,7.45.22,2.39.06,3.99,2.47,3.13,4.7l-5.47,14.14c-.53,1.36-1.84,2.24-3.3,2.2-2.69-.07-6.79-.19-7.9-.21-1.7-.04-3.44-.06-5.25-.06h-6.09c-2.64,0-4.95.32-6.94.96-1.99.64-3.74,1.69-5.24,3.16-1.51,1.46-2.79,3.4-3.84,5.81-1.06,2.41-1.92,5.41-2.6,9.02Z"/><path class="cls-4" d="m781.7,95.04h-23.12l-6.07,13.32c-.56,1.23-1.79,2.02-3.14,2.02h-18.34c-2.6,0-4.27-2.76-3.06-5.06l38.55-73.39c.6-1.14,1.77-1.85,3.06-1.85h25.13c1.73,0,3.19,1.27,3.42,2.98l10.1,73.39c.29,2.08-1.33,3.92-3.42,3.92h-18.77c-1.81,0-3.31-1.4-3.44-3.2l-.89-12.14Zm-14.21-19.51h12.74l-1.8-23.69-10.94,23.69Z"/><path class="cls-3" d="m185.01,108.05c-.49,1.28-1.69,2.15-3.05,2.21-2.27.11-5.57.26-6.44.29-1.36.04-2.73.05-4.12.05h-4.68c-6.32,0-11.6-.74-15.84-2.2-4.25-1.46-7.69-3.5-10.32-6.09-2.63-2.6-4.51-5.7-5.64-9.31-1.13-3.61-1.69-7.56-1.69-11.84,0-1.95.09-3.92.28-5.92.18-1.99.47-4.08.84-6.26,1.36-7.52,3.37-13.79,6.03-18.83,2.67-5.04,5.99-9.06,9.98-12.07,3.98-3.01,8.62-5.13,13.93-6.37,5.3-1.24,11.26-1.86,17.87-1.86h3.95c1.2,0,2.5.02,3.89.06.75.02,4.2.17,7.21.3,2.36.1,3.92,2.49,3.07,4.7l-5.61,14.53c-.53,1.37-1.87,2.26-3.34,2.21-2.07-.07-4.81-.17-5.44-.19-1.06-.04-2.07-.06-3.05-.06h-3.38c-5.04,0-8.99,1.45-11.84,4.34-2.86,2.89-5.04,7.65-6.54,14.27-.68,3.31-1.01,6.09-1.01,8.35s.3,4.08.9,5.47c.6,1.39,1.39,2.48,2.37,3.27.98.79,2.12,1.32,3.44,1.58,1.32.27,2.73.4,4.23.4h5.81c1.04,0,6.34-.12,10.47-.22,2.46-.06,4.18,2.4,3.29,4.69l-5.58,14.51Z"/><path class="cls-3" d="m232.36,85.57h-7.56l-4.3,22.02c-.32,1.62-1.74,2.79-3.39,2.79h-17.32c-2.17,0-3.81-1.98-3.39-4.12l14.32-73.39c.32-1.62,1.74-2.79,3.39-2.79h28.51c4.74,0,9,.44,12.8,1.3,3.79.87,7.03,2.2,9.7,4.01,2.67,1.8,4.72,4.13,6.15,6.99,1.43,2.86,2.15,6.32,2.15,10.38,0,1.05-.04,2.14-.11,3.27-.08,1.13-.23,2.3-.45,3.5-1.06,6.16-3.14,11.05-6.26,14.66-3.12,3.6-6.82,6.31-11.11,8.12l8.3,23.47c.79,2.25-.87,4.6-3.26,4.6h-17.74c-1.5,0-2.84-.97-3.29-2.41l-7.13-22.41Zm-3.84-19.17h7.9c1.96,0,3.61-.11,4.96-.34,1.36-.23,2.48-.62,3.38-1.19s1.59-1.32,2.09-2.26c.49-.94.88-2.12,1.19-3.55.23-1.13.34-2.14.34-3.05,0-2.25-.74-3.83-2.2-4.74-1.46-.9-3.66-1.35-6.6-1.35h-7.78l-3.27,16.47Z"/><path class="cls-3" d="m273.65,106.27l14.32-73.39c.32-1.62,1.74-2.79,3.39-2.79h53.93c2.42,0,4.09,2.43,3.22,4.7l-5.12,13.28c-.51,1.33-1.79,2.21-3.22,2.21h-30.56l-1.91,9.58h27.23c2.42,0,4.09,2.43,3.22,4.69l-5.02,13.06c-.51,1.33-1.79,2.22-3.22,2.22h-26.04l-2.03,10.37h32.78c2.42,0,4.09,2.42,3.23,4.68l-5.05,13.28c-.51,1.34-1.79,2.23-3.23,2.23h-52.52c-2.17,0-3.81-1.98-3.39-4.12Z"/><path class="cls-3" d="m358.01,32.87c.32-1.62,1.74-2.79,3.39-2.79h26.7c12.03,0,21.13,2.39,27.29,7.17,6.16,4.77,9.25,12.42,9.25,22.95,0,3.46-.34,7.15-1.02,11.05-1.27,8.04-3.38,14.61-6.31,19.68-2.93,5.07-6.53,9.04-10.77,11.9-4.25,2.86-9.1,4.83-14.55,5.92-5.45,1.09-11.37,1.64-17.76,1.64h-27.16c-2.17,0-3.81-1.98-3.39-4.12l14.32-73.39Zm22.09,18.86l-7.21,36.99h4.74c2.93,0,5.47-.21,7.61-.62,2.15-.41,3.97-1.26,5.47-2.54,1.5-1.27,2.76-3.14,3.78-5.58,1.01-2.44,1.9-5.69,2.65-9.75.3-1.73.53-3.29.68-4.68.15-1.39.23-2.65.23-3.78,0-2.03-.26-3.7-.79-5.02-.53-1.32-1.35-2.35-2.48-3.1-1.13-.75-2.56-1.26-4.29-1.52-1.73-.26-3.76-.4-6.09-.4h-4.29Z"/></g></svg>